<svg xmlns="http://www.w3.org/2000/svg" version="1.1" xmlns:xlink="http://www.w3.org/1999/xlink" xmlns:svgjs="http://svgjs.dev/svgjs" viewBox="0 0 800 800"><defs><linearGradient x1="50%" y1="0%" x2="50%" y2="100%" id="ccchaos-grad"><stop stop-color="hsl(206, 75%, 49%)" stop-opacity="1" offset="0%"></stop><stop stop-color="hsl(331, 90%, 56%)" stop-opacity="1" offset="100%"></stop></linearGradient></defs><g stroke-width="2" stroke="url(#ccchaos-grad)" fill="none" stroke-linecap="round"><path d="M404.72 124.25C414.7 120.98 424.9 117.67 435.3 114.63 445.73 111.64 456.37 109.52 467.18 108.51 478.01 108.31 489.01 109.54 500.09 112.21 511.13 115.9 522.19 120.92 533.13 127.09 543.89 133.9 554.37 141.47 564.39 149.54 573.99 157.63 582.89 165.82 590.9 173.93 598.19 181.54 604.36 188.85 609.24 195.8 614.59 205 617.69 220.98 616.21 228.24 614.3 235 612.84 249.45 615.64 257.56 619.98 263.15 626.1 269.23 634.03 275.8 643.88 282.46 655.08 289.61 667.15 297.21 679.71 304.9 691.85 313 702.75 321.45 712.01 329.94 718.67 338.75 722.15 347.82 722.65 356.9 719.61 366.21 713.21 375.73 704.54 385.24 693.93 394.73 682.32 404.2 670.92 413.7 660.22 423.21 650.92 432.77 643.83 442.42 638.93 452.19 636.26 462.13 636.13 472.25 637.79 482.63 640.77 493.29 645.11 504.21 649.67 515.48 653.86 527.08 657.8 538.91 660.43 551.02 661.43 563.29 661.12 575.57 658.83 587.79 654.59 599.72 648.87 611.21 641.42 622 632.5 631.79 622.55 640.55 611.61 647.88 599.98 653.52 587.93 657.73 575.63 660.06 563.3 660.49 551.02 659.7 538.94 657.35 527.17 653.75 515.66 649.95 504.51 645.81 493.72 641.88 483.21 639.26 472.99 637.88 463.04 638.19 453.28 640.89 443.68 645.69 434.21 652.51 424.82 661.42 415.48 671.62 406.15 682.44 396.85 693.44 387.52 703.48 378.16 711.66 368.8 717.7 359.63 720.55 350.68 720.04 341.74 716.72 333.03 710.36 324.6 701.52 316.2 691.12 308.11 679.52 300.37 667.47 292.69 655.86 285.38 645.04 278.47 635.47 271.59 627.7 265.11 621.62 259.02 617.21 250 614.15 233.23 614.83 225.19 616.35 219.56 617.4 213.95 617.65 208.31 616.88 202.24 615.5 196.07 612.83 189.8 608.86 183.09 604.04 176.33 597.98 169.56 590.8 162.54 582.92 155.68 574.14 149.11 564.66 142.61 554.74 136.63 544.35 131.3 533.66 126.37 522.77 122.27 511.74 119.1 500.71 116.47 489.62 114.77 478.62 114.01 467.76 113.64 456.92 114.02 446.25 115.05 435.81 116.09 425.39 117.48 415.19 119.12 405.24 120.32 395.29 121.52 385.8 122.65 376.78 123.2 367.72 123.73 359.09 124.27 350.87 124.44 342.59 124.84 334.66 125.59 327.07 126.35 319.35 127.71 311.88 129.76 304.62 132.18 297.13 135.44 289.74 139.57 282.39 144.21 274.7 149.71 266.93 155.99 259.03 162.69 250.71 170.04 242.19 177.91 233.46 185.97 224.32 194.36 215.01 202.99 205.6 211.54 195.98 220.18 186.43 228.83 177.12 237.24 167.99 245.62 159.4 253.95 151.53 261.96 144.29 269.96 138.07 277.94 133.02 285.66 128.85 293.43 125.95 301.31 124.31 308.98 123.4 316.84 123.51 324.91 124.48 332.84 125.55 341.06 126.99 349.58 128.51 358.03 129.36 366.84 129.82 376.02 129.74 385.16 128.53 394.72 126.67 404.7 124.25" stroke-dasharray="11 10" transform="rotate(0, 400, 400)" opacity="0.83"></path><path d="M411.46 135.55C421.22 132.32 431.14 129.06 441.2 126.04 451.28 123.03 461.5 120.81 471.81 119.6 482.12 119.13 492.48 119.99 502.81 122.21 513.06 125.4 523.18 129.89 533.05 135.54 542.69 141.87 551.91 149.03 560.57 156.78 568.77 164.68 576.2 172.8 582.7 180.95 588.54 188.76 593.31 196.36 596.89 203.68 599.8 210.4 601.55 216.78 602.21 222.87 602.25 231.01 600.03 245.99 599.57 253.33 600.66 258.05 602.83 263.04 606.36 268.36 611.75 273.62 618.73 279.3 627.26 285.4 637.37 291.53 648.52 298.1 660.24 305.12 672.17 312.17 683.5 319.65 693.5 327.51 701.89 335.4 707.79 343.65 710.72 352.23 710.92 360.81 707.9 369.71 701.79 378.9 693.61 388.1 683.62 397.38 672.64 406.74 661.77 416.12 651.39 425.63 642.16 435.26 634.85 444.98 629.44 454.89 626.03 465.01 624.96 475.27 625.6 485.8 627.59 496.6 631.02 507.56 634.89 518.8 638.68 530.26 642.53 541.8 645.43 553.46 647.04 565.1 647.68 576.57 646.62 587.78 643.82 598.49 639.71 608.62 633.95 617.9 626.71 626.06 618.42 633.18 609.01 638.87 598.75 642.93 587.93 645.74 576.63 646.88 565.1 646.38 553.43 644.97 541.78 642.34 530.27 638.81 518.88 635.36 507.73 631.85 496.88 628.75 486.21 627.05 475.83 626.61 465.71 627.8 455.76 631.21 446.01 636.49 436.46 643.54 426.99 652.41 417.65 662.32 408.42 672.68 399.22 683.13 390.08 692.62 381.02 700.37 371.96 706.15 363.17 709 354.66 708.78 346.16 705.96 337.94 700.31 330.05 692.29 322.16 682.71 314.61 671.84 307.41 660.36 300.22 649.07 293.39 638.28 286.93 628.43 280.45 620.08 274.31 613.19 268.49 607.79 259.75 603.01 243.08 600.67 234.85 601.31 229.05 602.12 223.22 602.45 217.34 602.05 211.03 601.32 204.63 599.54 198.14 596.65 191.28 593.12 184.4 588.44 177.56 582.7 170.57 576.31 163.79 569.01 157.35 560.93 151.06 552.4 145.32 543.29 140.27 533.75 135.64 523.96 131.86 513.91 128.98 503.73 126.64 493.44 125.21 483.11 124.67 472.84 124.51 462.55 125.06 452.35 126.22 442.32 127.37 432.28 128.85 422.41 130.54 412.74 131.81 403.06 133.04 393.8 134.2 384.93 134.77 376.04 135.3 367.51 135.81 359.32 135.92 351.07 136.22 343.1 136.81 335.38 137.36 327.52 138.46 319.84 140.18 312.28 142.21 304.49 145.05 296.74 148.69 288.96 152.83 280.87 157.81 272.67 163.57 264.34 169.78 255.65 176.67 246.79 184.12 237.77 191.84 228.47 199.96 219.09 208.37 209.71 216.81 200.28 225.41 191.04 234.08 182.16 242.6 173.59 251.13 165.64 259.63 158.49 267.89 152.02 276.12 146.57 284.33 142.28 292.31 138.81 300.31 136.52 308.37 135.4 316.23 134.88 324.22 135.26 332.38 136.37 340.39 137.49 348.64 138.87 357.13 140.29 365.55 141.01 374.27 141.33 383.31 141.13 392.33 139.85 401.7 137.96 411.45 135.55" stroke-dasharray="5 5" transform="rotate(4.04, 400, 400)" opacity="0.88"></path><path d="M417.02 146.84C426.51 143.68 436.08 140.47 445.73 137.47 455.37 134.45 465.06 132.15 474.76 130.78 484.42 130.05 494.02 130.56 503.47 132.35 512.81 135.04 521.9 139 530.63 144.09 539.1 149.91 547.05 156.59 554.36 163.94 561.24 171.55 567.32 179.49 572.48 187.58 577.1 195.46 580.73 203.25 583.32 210.84 585.43 217.94 586.62 224.76 586.97 231.31 587.07 240.18 586.66 256.38 587.77 264.1 589.99 268.98 593.31 274.03 597.92 279.31 604.19 284.45 611.86 289.93 620.8 295.75 631.02 301.54 641.98 307.73 653.23 314.32 664.48 320.91 674.98 327.91 684.1 335.31 691.63 342.71 696.81 350.5 699.24 358.67 699.18 366.84 696.18 375.37 690.36 384.27 682.67 393.17 673.28 402.23 662.93 411.45 652.58 420.69 642.57 430.12 633.48 439.73 626.02 449.4 620.2 459.3 616.15 469.42 614.22 479.63 613.9 490.08 614.92 500.74 617.41 511.48 620.5 522.39 623.74 533.39 627.29 544.35 630.22 555.26 632.19 565.98 633.49 576.41 633.39 586.39 631.78 595.72 629.08 604.39 624.85 612.11 619.19 618.66 612.54 624.23 604.71 628.41 595.92 631.1 586.49 632.74 576.42 632.94 565.93 631.78 555.16 630 544.23 627.32 533.28 624.05 522.31 621.1 511.46 618.3 500.8 616.08 490.25 615.28 479.91 615.75 469.82 617.74 459.85 621.76 450.09 627.44 440.55 634.65 431.09 643.41 421.8 653.01 412.69 662.9 403.6 672.8 394.65 681.75 385.85 689.07 377.04 694.6 368.57 697.45 360.43 697.47 352.29 695.13 344.47 690.15 336.99 682.91 329.5 674.15 322.35 664.05 315.55 653.19 308.72 642.32 302.22 631.68 296.05 621.73 289.81 612.97 283.85 605.41 278.16 599.16 272.32 594.52 266.66 591.1 261.16 588.73 255.4 587.61 249.71 587.09 244.03 586.86 238 587.19 231.93 587.3 225.78 586.96 219.25 586.53 212.64 585.31 205.97 583.21 199.01 580.65 192.07 577.09 185.24 572.56 178.33 567.51 171.69 561.55 165.45 554.8 159.42 547.63 153.98 539.8 149.24 531.46 144.95 522.84 141.49 513.86 138.93 504.62 136.89 495.25 135.73 485.73 135.42 476.15 135.45 466.52 136.15 456.9 137.42 447.34 138.67 437.77 140.22 428.29 141.97 418.92 143.28 409.54 144.56 400.5 145.74 391.77 146.35 383.02 146.88 374.55 147.37 366.34 147.45 358.07 147.67 350 148.14 342.1 148.52 334.07 149.37 326.14 150.79 318.27 152.46 310.19 154.88 302.08 158.05 293.93 161.68 285.5 166.12 276.96 171.32 268.3 176.99 259.37 183.35 250.33 190.31 241.2 197.59 231.91 205.33 222.64 213.42 213.48 221.63 204.4 230.06 195.63 238.64 187.32 247.14 179.4 255.71 172.19 264.29 165.82 272.7 160.14 281.1 155.47 289.49 151.92 297.68 149.12 305.88 147.4 314.11 146.72 322.17 146.54 330.32 147.14 338.57 148.34 346.7 149.47 354.99 150.78 363.48 152.06 371.89 152.64 380.55 152.83 389.46 152.5 398.35 151.16 407.53 149.24 417.01 146.85" stroke-dasharray="8 11" transform="rotate(8.08, 400, 400)" opacity="0.57"></path><path d="M420.82 158.14C429.98 155.03 439.15 151.89 448.3 148.94 457.44 145.92 466.53 143.56 475.51 142.04 484.45 141.08 493.21 141.26 501.73 142.63 510.11 144.84 518.15 148.26 525.73 152.79 533.06 158.05 539.82 164.21 545.89 171.09 551.59 178.32 556.52 185.98 560.58 193.89 564.24 201.72 567.02 209.57 568.95 217.32 570.6 224.7 571.54 231.87 571.89 238.8 572.35 245.25 572.57 251.49 572.78 257.53 573.67 263.14 575.01 268.65 577.06 274.14 580.36 279.3 584.71 284.56 590.25 289.95 597.25 295.16 605.41 300.61 614.6 306.34 624.77 311.97 635.41 317.94 646.11 324.27 656.63 330.56 666.28 337.23 674.53 344.3 681.25 351.34 685.76 358.78 687.72 366.61 687.43 374.43 684.46 382.65 678.94 391.26 671.71 399.88 662.91 408.71 653.17 417.74 643.36 426.78 633.74 436.04 624.84 445.49 617.32 454.99 611.18 464.71 606.59 474.62 603.9 484.57 602.7 494.7 602.78 504.96 604.32 515.22 606.57 525.54 609.15 535.81 612.24 545.93 614.98 555.87 617.06 565.45 618.76 574.65 619.33 583.28 618.65 591.15 617.12 598.35 614.21 604.55 609.99 609.59 604.86 613.75 598.57 616.63 591.27 618.18 583.3 618.9 574.58 618.42 565.3 616.86 555.65 614.96 545.68 612.44 535.53 609.58 525.27 607.24 514.98 605.23 504.77 603.9 494.57 603.98 484.52 605.28 474.65 607.99 464.85 612.53 455.24 618.52 445.84 625.82 436.5 634.42 427.35 643.68 418.39 653.1 409.47 662.44 400.72 670.87 392.15 677.77 383.58 683.06 375.37 685.88 367.53 686.13 359.67 684.23 352.15 679.88 344.98 673.4 337.78 665.44 330.91 656.12 324.36 645.94 317.75 635.57 311.44 625.21 305.41 615.29 299.27 606.29 293.37 598.24 287.66 591.3 281.77 585.75 276.01 581.34 270.34 577.94 264.41 575.76 258.49 574.27 252.55 573.23 246.29 572.88 239.96 572.53 233.57 571.98 226.85 571.55 220.08 570.57 213.3 568.92 206.29 567.01 199.37 564.28 192.62 560.71 185.87 556.74 179.44 551.94 173.46 546.36 167.74 540.42 162.63 533.8 158.24 526.61 154.32 519.17 151.21 511.26 148.98 503.01 147.24 494.61 146.33 485.96 146.24 477.14 146.45 468.26 147.29 459.28 148.67 450.25 150 441.22 151.61 432.16 153.39 423.13 154.75 414.09 156.06 405.28 157.27 396.7 157.92 388.09 158.47 379.68 158.97 371.44 159.03 363.15 159.21 354.98 159.57 346.91 159.81 338.72 160.46 330.56 161.61 322.42 162.95 314.09 164.96 305.72 167.67 297.28 170.79 288.63 174.69 279.89 179.32 271.06 184.41 262.06 190.19 253 196.59 243.95 203.35 234.85 210.61 225.87 218.28 217.11 226.14 208.53 234.28 200.36 242.62 192.74 250.99 185.58 259.46 179.15 268 173.6 276.45 168.72 284.91 164.82 293.38 161.96 301.71 159.77 310.04 158.57 318.39 158.29 326.6 158.38 334.86 159.14 343.18 160.39 351.41 161.49 359.74 162.7 368.2 163.83 376.61 164.26 385.18 164.3 393.94 163.86 402.68 162.45 411.64 160.52 420.8 158.14" stroke-dasharray="6 3" transform="rotate(12.12, 400, 400)" opacity="0.18"></path><path d="M422.45 169.44C431.25 166.4 439.96 163.33 448.56 160.42 457.14 157.43 465.57 155.03 473.81 153.38 481.98 152.22 489.9 152.1 497.48 153.07 504.92 154.81 511.94 157.71 518.46 161.67 524.75 166.35 530.45 171.94 535.47 178.29 540.2 185.06 544.21 192.33 547.46 199.95 550.43 207.61 552.69 215.39 554.27 223.17 555.75 230.71 556.74 238.11 557.37 245.34 558.28 252.17 559.15 258.82 560.2 265.28 562 271.33 564.36 277.27 567.46 283.13 571.74 288.66 576.99 294.21 583.3 299.84 590.84 305.24 599.32 310.81 608.57 316.58 618.55 322.22 628.77 328.13 638.84 334.34 648.59 340.48 657.4 346.96 664.8 353.8 670.75 360.6 674.62 367.78 676.16 375.34 675.67 382.88 672.75 390.82 667.51 399.17 660.74 407.51 652.51 416.07 643.37 424.83 634.1 433.61 624.9 442.59 616.24 451.75 608.73 460.94 602.37 470.3 597.33 479.8 593.98 489.3 591.98 498.9 591.19 508.53 591.8 518.08 593.18 527.58 595.03 536.91 597.52 546.02 599.9 554.81 601.87 563.13 603.71 571.03 604.69 578.27 604.68 584.69 603.12 592.87 593.01 602.81 584.69 604.38 578.17 604.45 570.84 603.55 562.86 601.84 554.46 600.03 545.61 597.83 536.45 595.53 527.1 593.88 517.59 592.68 508.04 592.22 498.44 593.13 488.88 595.2 479.43 598.54 469.99 603.51 460.69 609.73 451.57 617.04 442.48 625.43 433.56 634.32 424.83 643.26 416.13 652.07 407.6 659.98 399.26 666.48 390.92 671.51 382.95 674.3 375.33 674.74 367.7 673.25 360.41 669.5 353.44 663.74 346.43 656.57 339.72 648.04 333.31 638.57 326.81 628.77 320.57 618.81 314.56 609.05 308.41 599.97 302.45 591.6 296.63 584.13 290.61 577.85 284.67 572.56 278.78 568.22 272.63 565.03 266.47 562.56 260.28 560.63 253.79 559.47 247.25 558.49 240.66 557.49 233.82 556.79 226.95 555.76 220.13 554.26 213.17 552.7 206.34 550.48 199.75 547.58 193.22 544.42 187.08 540.52 181.41 535.91 176.05 531.01 171.33 525.46 167.32 519.31 163.78 512.94 161.03 506.06 159.13 498.76 157.69 491.32 157.03 483.55 157.14 475.51 157.52 467.41 158.49 459.11 159.95 450.65 161.35 442.19 163 433.61 164.82 424.94 166.22 416.28 167.56 407.73 168.79 399.31 169.48 390.88 170.07 382.55 170.58 374.32 170.66 366.04 170.81 357.81 171.1 349.61 171.23 341.32 171.71 333.02 172.62 324.7 173.66 316.24 175.3 307.72 177.59 299.14 180.22 290.42 183.57 281.64 187.63 272.83 192.12 263.93 197.29 255.06 203.08 246.27 209.25 237.54 215.95 229.02 223.1 220.82 230.49 212.88 238.22 205.42 246.21 198.57 254.29 192.22 262.54 186.62 270.9 181.89 279.24 177.79 287.64 174.62 296.06 172.41 304.41 170.78 312.77 170.02 321.14 170.06 329.42 170.38 337.72 171.23 346.05 172.49 354.31 173.52 362.64 174.61 371.03 175.58 379.38 175.86 387.84 175.76 396.4 175.2 404.95 173.74 413.64 171.79 422.44 169.44" stroke-dasharray="2 9" transform="rotate(16.16, 400, 400)" opacity="0.13"></path><path d="M421.75 180.73C430.14 177.77 438.35 174.78 446.37 171.94 454.36 168.99 462.13 166.56 469.61 164.81 477.04 163.47 484.13 163.07 490.83 163.68 497.4 164.98 503.51 167.35 509.11 170.75 514.51 174.84 519.34 179.83 523.54 185.61 527.53 191.84 530.89 198.64 533.62 205.87 536.19 213.24 538.21 220.82 539.74 228.5 541.33 236.05 542.61 243.56 543.73 250.96 545.25 258.07 546.89 265.03 548.84 271.83 551.57 278.29 554.9 284.62 558.95 290.85 564.08 296.77 570.08 302.67 576.96 308.58 584.86 314.27 593.48 320.04 602.65 325.95 612.3 331.72 622 337.69 631.4 343.89 640.35 350 648.32 356.4 654.9 363.1 660.12 369.76 663.41 376.75 664.56 384.09 663.9 391.41 661.04 399.09 656.09 407.15 649.76 415.21 642.09 423.47 633.53 431.89 624.81 440.32 616.05 448.92 607.67 457.66 600.24 466.4 593.74 475.25 588.36 484.16 584.46 493.04 581.75 501.92 580.15 510.74 579.88 519.43 580.39 527.95 581.46 536.2 583.27 544.18 585.13 551.75 586.81 558.77 589.35 575.45 582.61 589.4 576.21 589.95 571.05 589.61 565.06 588.54 558.38 586.9 551.27 585.35 543.62 583.63 535.56 581.98 527.26 581.07 518.7 580.69 509.98 581.07 501.15 582.75 492.26 585.49 483.39 589.38 474.5 594.68 465.66 601.05 456.94 608.3 448.23 616.45 439.65 624.95 431.22 633.39 422.81 641.67 414.54 649.08 406.44 655.18 398.35 659.96 390.59 662.71 383.17 663.33 375.73 662.2 368.59 659 361.75 653.94 354.86 647.54 348.24 639.79 341.86 631.06 335.4 621.9 329.13 612.41 323.05 602.95 316.83 593.93 310.74 585.42 304.74 577.59 298.55 570.74 292.41 564.73 286.29 559.56 279.92 555.44 273.54 552.03 267.12 549.2 260.46 547.16 253.77 545.42 247.06 543.83 240.16 542.64 233.29 541.31 226.52 539.71 219.68 538.19 213.04 536.2 206.69 533.67 200.46 531.02 194.66 527.76 189.37 523.88 184.41 519.8 180.1 515.1 176.5 509.83 173.35 504.39 170.97 498.42 169.39 491.99 168.24 485.45 167.84 478.5 168.13 471.22 168.67 463.88 169.74 456.25 171.27 448.39 172.73 440.51 174.41 432.43 176.24 424.17 177.67 415.9 179.04 407.66 180.31 399.46 181.04 391.25 181.67 383.06 182.21 374.89 182.32 366.69 182.47 358.48 182.72 350.26 182.77 341.97 183.12 333.64 183.83 325.27 184.61 316.82 185.92 308.31 187.81 299.76 189.98 291.15 192.82 282.51 196.31 273.9 200.19 265.3 204.74 256.79 209.9 248.45 215.42 240.25 221.5 232.34 228.05 224.83 234.87 217.63 242.08 210.97 249.6 204.95 257.26 199.43 265.15 194.67 273.19 190.74 281.28 187.38 289.47 184.89 297.72 183.27 305.95 182.12 314.21 181.74 322.48 182.04 330.71 182.51 338.95 183.42 347.19 184.63 355.4 185.57 363.63 186.51 371.88 187.31 380.11 187.44 388.38 187.19 396.69 186.52 405 185.01 413.35 183.06 421.74 180.74" stroke-dasharray="4 6" transform="rotate(20.200000000000003, 400, 400)" opacity="1.00"></path><path d="M418.79 192.03C426.73 189.15 434.42 186.25 441.85 183.47 449.26 180.58 456.37 178.15 463.15 176.32 469.87 174.82 476.22 174.18 482.14 174.45 490.64 176.28 504.96 185.75 510.68 193.1 514.18 198.75 517.16 205.01 519.63 211.75 522.08 218.72 524.13 225.98 525.85 233.43 527.75 240.84 529.51 248.31 531.27 255.75 533.5 262.99 535.96 270.14 538.8 277.18 542.41 283.94 546.61 290.6 551.49 297.15 557.31 303.43 563.87 309.66 571.15 315.86 579.22 321.86 587.82 327.89 596.76 333.99 605.98 339.95 615.08 346.04 623.74 352.3 631.9 358.47 639.04 364.86 644.84 371.48 649.37 378.06 652.12 384.92 652.93 392.07 652.12 399.19 649.34 406.64 644.67 414.39 638.77 422.15 631.63 430.05 623.65 438.07 615.47 446.09 607.17 454.22 599.12 462.42 591.82 470.59 585.28 478.81 579.65 487 575.3 495.13 571.98 503.17 569.67 511.05 568.58 518.78 568.26 526.24 568.53 533.34 570.22 543.35 574.1 559.97 575.19 566.17 573.02 573.03 559.63 574.13 551.79 572.24 545.93 571.1 539.48 569.96 532.56 569.02 525.38 568.86 517.84 569.28 510.06 570.45 502.13 572.82 494.04 576.15 485.88 580.47 477.66 586.03 469.42 592.46 461.22 599.6 453 607.46 444.85 615.54 436.79 623.5 428.74 631.24 420.79 638.17 412.96 643.89 405.13 648.41 397.6 651.11 390.35 651.87 383.07 651.09 376.06 648.4 369.3 643.99 362.49 638.32 355.9 631.35 349.5 623.38 343.02 614.9 336.69 605.97 330.49 596.91 324.16 588.1 317.91 579.6 311.73 571.59 305.37 564.34 299.03 557.78 292.7 551.94 286.17 547.01 279.61 542.74 273.04 539.05 266.28 536.13 259.52 533.59 252.78 531.29 245.93 529.47 239.16 527.67 232.53 525.74 225.91 524.01 219.55 521.98 213.51 519.57 204.95 515.7 190.92 505.29 185.8 498.67 182.05 491.35 178.83 474.18 179.21 464.5 179.88 457.86 181.05 450.88 182.63 443.59 184.12 436.29 185.83 428.71 187.67 420.88 189.12 413.05 190.51 405.16 191.8 397.23 192.59 389.3 193.27 381.32 193.85 373.31 194 365.28 194.17 357.19 194.41 349.07 194.42 340.91 194.66 332.69 195.21 324.43 195.79 316.14 196.81 307.82 198.34 299.48 200.1 291.15 202.45 282.85 205.41 274.63 208.7 266.5 212.62 258.52 217.13 250.79 221.99 243.26 227.4 236.08 233.3 229.35 239.48 222.97 246.08 217.15 253.02 211.99 260.15 207.3 267.55 203.34 275.14 200.18 282.84 197.51 290.68 195.63 298.61 194.52 306.57 193.78 314.58 193.7 322.63 194.19 330.66 194.75 338.72 195.66 346.77 196.8 354.8 197.62 362.84 198.4 370.86 199.02 378.88 198.98 386.89 198.6 394.88 197.83 402.87 196.27 410.85 194.31 418.78 192.03" stroke-dasharray="8 3" transform="rotate(24.24, 400, 400)" opacity="0.97"></path><path d="M413.89 203.33C421.34 200.54 428.51 197.73 435.37 195.04 442.21 192.21 448.72 189.79 454.86 187.91 463.81 185.87 479.54 186.62 486.22 189.64 492.32 194.43 502.17 208.7 506.06 217.71 508.6 224.17 510.88 231 512.99 238.08 515.36 245.23 517.72 252.51 520.18 259.84 523.15 267.07 526.42 274.27 530.1 281.4 534.49 288.35 539.44 295.21 544.99 301.99 551.32 308.55 558.26 315.05 565.75 321.5 573.83 327.77 582.25 334.04 590.83 340.34 599.52 346.5 607.96 352.74 615.87 359.08 623.22 365.34 629.56 371.75 634.62 378.33 638.51 384.86 640.77 391.61 641.26 398.57 640.33 405.52 637.64 412.71 633.24 420.14 627.76 427.57 621.14 435.08 613.73 442.63 606.09 450.18 598.26 457.76 590.57 465.33 583.47 472.87 576.95 480.36 571.18 487.75 566.48 495.05 562.66 502.19 559.73 509.08 557.35 519 556.88 536.5 557.86 543.71 554.11 558.29 535.78 557.16 527.3 556.71 521.22 557.3 514.73 558.47 507.92 560.35 500.94 563.33 493.73 567.14 486.36 571.81 478.91 577.52 471.35 583.95 463.75 590.91 456.12 598.45 448.48 606.11 440.86 613.57 433.25 620.8 425.66 627.25 418.14 632.59 410.61 636.87 403.31 639.49 396.23 640.39 389.14 639.9 382.25 637.69 375.55 633.89 368.81 628.93 362.23 622.72 355.8 615.51 349.28 607.74 342.88 599.44 336.57 590.87 330.14 582.39 323.76 574.05 317.42 566.02 310.93 558.56 304.45 551.63 297.97 545.27 291.34 539.68 284.7 534.68 278.07 530.22 271.31 526.47 264.58 523.13 257.92 520.09 251.22 517.57 244.64 515.16 238.26 512.76 231.96 510.64 225.94 508.36 220.29 505.83 212.39 502 199.74 492.38 195.27 486.43 192.1 479.93 189.74 464.57 190.38 455.79 191.17 449.77 192.41 443.38 194.03 436.64 195.54 429.89 197.26 422.81 199.09 415.43 200.56 408.05 201.97 400.55 203.29 392.96 204.13 385.37 204.86 377.68 205.49 369.93 205.7 362.17 205.91 354.34 206.16 346.45 206.16 338.55 206.34 330.6 206.78 322.62 207.18 314.66 207.97 306.69 209.2 298.75 210.58 290.87 212.5 283.07 214.96 275.41 217.7 267.89 221.01 260.59 224.89 253.58 229.08 246.82 233.8 240.46 239.01 234.57 244.51 229.04 250.43 224.09 256.72 219.77 263.22 215.89 270.02 212.69 277.06 210.22 284.23 208.18 291.58 206.82 299.06 206.14 306.61 205.73 314.25 205.87 321.93 206.48 329.64 207.08 337.38 207.95 345.11 208.97 352.85 209.65 360.59 210.25 368.28 210.69 375.99 210.49 383.66 209.98 391.26 209.11 398.88 207.51 406.42 205.57 413.88 203.33" stroke-dasharray="6 6" transform="rotate(28.28, 400, 400)" opacity="0.88"></path><path d="M407.54 214.62C414.5 211.93 421.15 209.22 427.48 206.62 436.78 202.68 453.54 197.35 460.93 196.54 467.86 197.19 479.69 203.42 484.64 208.9 487.85 213.27 490.76 218.29 493.43 223.85 496.23 229.73 498.9 236.03 501.51 242.64 504.43 249.39 507.43 256.34 510.62 263.41 514.3 270.46 518.31 277.56 522.72 284.65 527.76 291.62 533.29 298.55 539.33 305.43 545.99 312.15 553.12 318.82 560.64 325.43 568.57 331.9 576.68 338.34 584.79 344.78 592.87 351.11 600.61 357.47 607.75 363.87 614.3 370.21 619.87 376.63 624.24 383.16 627.53 389.65 629.34 396.27 629.56 403.04 628.54 409.8 625.94 416.72 621.82 423.8 616.73 430.88 610.62 437.95 603.76 444.99 596.65 452.02 589.31 459.01 582.01 465.91 575.16 472.76 568.75 479.5 562.91 486.04 557.97 492.51 553.76 498.73 550.31 504.64 546.93 513.1 544.28 527.54 544.3 533.27 541.13 544.24 526.83 544.48 519.84 545.1 514.78 546.4 509.29 548.26 503.42 550.77 497.39 554.25 491.07 558.45 484.51 563.37 477.87 569.15 471.04 575.5 464.09 582.24 457.11 589.43 450.04 596.64 442.91 603.61 435.78 610.33 428.61 616.32 421.43 621.29 414.24 625.33 407.21 627.87 400.33 628.87 393.44 628.65 386.69 626.87 380.07 623.64 373.42 619.36 366.87 613.88 360.43 607.43 353.91 600.39 347.47 592.76 341.08 584.76 334.6 576.72 328.14 568.68 321.71 560.78 315.17 553.28 308.63 546.15 302.1 539.46 295.47 533.39 288.86 527.81 282.27 522.7 275.63 518.23 269.05 514.15 262.59 510.4 256.14 507.15 249.86 504.09 243.82 501.13 235.12 497.15 219.96 488.91 213.8 484.3 208.75 479.44 202.32 467.85 201.01 461.05 200.76 453.81 203.17 437.33 205.46 428.14 206.99 421.89 208.7 415.3 210.51 408.38 211.99 401.46 213.42 394.38 214.75 387.19 215.64 380 216.43 372.7 217.12 365.3 217.4 357.92 217.66 350.46 217.94 342.94 217.96 335.44 218.12 327.91 218.48 320.37 218.76 312.88 219.37 305.42 220.34 298.04 221.41 290.75 222.95 283.59 224.96 276.63 227.2 269.84 229.95 263.31 233.22 257.12 236.76 251.19 240.81 245.68 245.33 240.66 250.11 235.98 255.33 231.86 260.91 228.34 266.72 225.21 272.85 222.71 279.24 220.86 285.78 219.34 292.54 218.43 299.46 218.09 306.47 217.93 313.6 218.21 320.8 218.88 328.06 219.47 335.35 220.25 342.66 221.13 349.99 221.64 357.32 222.06 364.6 222.31 371.9 221.97 379.15 221.33 386.31 220.37 393.49 218.74 400.57 216.81 407.53 214.63" stroke-dasharray="7 8" transform="rotate(32.32, 400, 400)" opacity="0.53"></path><path d="M400.41 225.92C406.87 223.33 413.03 220.73 418.88 218.23 427.47 214.41 442.95 208.96 449.82 207.85 456.33 208 467.72 212.75 472.72 217.31 476.04 221.03 479.17 225.38 482.16 230.28 485.34 235.52 488.48 241.21 491.64 247.26 495.13 253.5 498.77 260 502.62 266.67 506.93 273.41 511.57 280.24 516.57 287.12 522.1 293.97 528.04 300.82 534.37 307.64 541.19 314.37 548.33 321.07 555.71 327.72 563.34 334.27 571.02 340.8 578.57 347.29 586 353.7 593 360.1 599.37 366.52 605.15 372.87 609.99 379.26 613.7 385.7 616.44 392.11 617.85 398.58 617.84 405.13 616.74 411.66 614.24 418.29 610.39 424.98 605.7 431.68 600.07 438.29 593.74 444.8 587.17 451.3 580.32 457.67 573.44 463.88 566.89 470.05 560.63 476.03 554.82 481.76 549.74 487.41 545.25 492.77 541.39 497.79 533.12 517.92 531.24 529.6 530.61 530.6 527.12 531.28 516.11 532.57 510.38 534.22 506.22 536.16 501.61 538.63 496.61 541.68 491.47 545.56 485.99 550.05 480.22 555.12 474.38 560.89 468.29 567.09 462.01 573.57 455.7 580.38 449.22 587.13 442.62 593.61 436.01 599.84 429.29 605.38 422.49 610 415.69 613.78 408.97 616.24 402.33 617.32 395.68 617.34 389.11 615.95 382.62 613.25 376.1 609.59 369.64 604.82 363.23 599.11 356.78 592.81 350.36 585.88 343.97 578.52 337.52 571.02 331.08 563.38 324.65 555.76 318.16 548.38 311.67 541.23 305.21 534.39 298.7 528.01 292.22 522.02 285.82 516.43 279.4 511.36 273.09 506.65 266.93 502.27 260.84 498.35 254.96 494.65 249.35 491.1 241.36 486.31 227.72 476.96 222.32 472.08 217.98 467.13 212.74 455.88 211.85 449.46 211.91 442.69 214.61 427.38 216.92 418.86 218.45 413.05 220.15 406.92 221.94 400.46 223.41 394 224.84 387.38 226.19 380.63 227.13 373.9 227.97 367.05 228.73 360.11 229.09 353.2 229.42 346.21 229.76 339.19 229.82 332.21 229.99 325.21 230.31 318.25 230.52 311.36 230.99 304.54 231.77 297.83 232.59 291.25 233.8 284.84 235.43 278.66 237.22 272.67 239.47 266.97 242.19 261.64 246.83 254.23 258.7 242.19 265.82 237.75 270.9 235.29 276.31 233.39 282 232.06 287.85 230.98 293.94 230.41 300.2 230.33 306.59 230.33 313.11 230.7 319.73 231.35 326.42 231.88 333.18 232.54 339.96 233.25 346.78 233.59 353.6 233.83 360.39 233.89 367.21 233.4 373.97 232.64 380.65 231.6 387.35 229.96 393.94 228.05 400.4 225.92" stroke-dasharray="5 7" transform="rotate(36.36, 400, 400)" opacity="0.09"></path><path d="M393.24 237.22C399.21 234.73 404.92 232.25 410.35 229.86 415.76 227.32 420.89 225.05 425.73 223.13 435.39 219.73 443.92 218.64 451.4 220.1 459.06 223.21 466.03 229.01 472.61 237.12 480.01 246.56 487.72 257.67 496.16 269.86 506.2 282.49 517.47 295.62 529.96 308.87 543.81 321.99 558.18 335.07 572.12 347.98 585.26 360.67 595.99 373.32 603 385.9 605.24 392.17 606.3 398.44 606.09 404.72 604.94 410.99 602.55 417.28 598.97 423.57 594.65 429.86 589.49 436 583.68 441.97 577.62 447.93 571.27 453.7 564.83 459.25 552.78 470.25 541.91 480.19 532.92 488.77 524.64 500.21 518.2 513.76 516.29 516.16 513.72 518.04 499.56 524.66 487.76 533.05 478.92 542.07 468.74 552.92 457.52 564.89 451.85 571.29 445.98 577.58 439.92 583.58 433.85 589.33 427.61 594.43 421.23 598.7 414.84 602.25 408.47 604.61 402.12 605.75 395.77 605.96 389.43 604.93 383.13 602.71 370.48 595.77 357.86 585.14 345.32 572.09 332.65 558.18 319.99 543.8 307.48 529.89 294.94 517.3 282.71 505.89 271.13 495.7 259.97 487.12 249.9 479.27 241.35 471.77 233.84 465.14 228.27 458.15 224.91 450.49 222.73 443.06 222.61 434.58 224.41 424.96 226.12 417.6 230.77 401.35 233.36 392.49 234.83 386.48 236.26 380.33 237.62 374.08 238.6 367.83 239.49 361.49 240.31 355.08 240.85 342.35 241.4 329.49 242.22 316.83 242.49 304.51 243.78 292.69 246.34 281.81 249.31 271.67 253.97 262.87 260.22 255.84 267.27 249.85 275.83 245.79 285.61 243.77 296.01 242.41 307.33 242.57 319.19 243.86 331.37 244.49 343.85 245.16 356.3 245.41 362.57 244.78 368.81 243.92 374.98 242.81 381.16 241.16 387.25 239.28 393.23 237.22" stroke-dasharray="8 2" transform="rotate(40.400000000000006, 400, 400)" opacity="0.25"></path><path d="M386.77 248.51C397.8 243.46 407.92 238.77 417.1 235.02 426.29 231.55 434.64 230.09 442.24 230.87 450.11 233.04 457.59 237.66 464.96 244.44 473.14 252.5 481.78 262.26 491.13 273.22 501.79 284.76 513.44 296.97 525.92 309.47 539.27 322.04 552.72 334.66 565.39 347.15 577.06 359.55 586.33 371.85 592.15 383.96 594.97 396.03 593.46 407.99 587.54 419.72 579.12 431.45 568.2 442.35 556.18 452.27 544.77 462.08 534.11 470.73 524.87 478.03 515.32 487.8 505.57 499.57 502.57 502.28 499.72 505.25 487.41 515.19 477.3 524.85 469.75 534.13 460.87 544.8 450.86 556.19 440.72 568.17 429.63 579.03 417.75 587.4 405.88 593.29 393.83 594.81 381.76 592.03 369.67 586.25 357.5 577.04 345.37 565.41 333.2 552.74 321.07 539.25 309.16 525.82 297.37 513.22 286 501.42 275.37 490.6 265.29 481.08 256.33 472.29 248.9 463.97 242.47 456.49 237.85 448.93 235.28 441.01 233.7 433.39 233.96 425.02 235.92 415.8 238.05 406.61 241.13 396.43 244.79 385.3 247.36 374.16 249.76 362.62 251.86 350.95 252.6 339.38 253.31 327.84 254.2 316.64 254.46 305.78 255.54 295.55 257.65 286.34 259.97 277.79 263.74 270.58 268.92 265.02 274.71 260.28 281.92 257.24 290.31 255.92 299.24 254.98 309.13 255.24 319.63 256.37 330.46 256.71 341.67 257 352.97 256.87 364.38 254.9 375.73 252.06 386.76 248.52" stroke-dasharray="11 6" transform="rotate(44.44, 400, 400)" opacity="0.45"></path><path d="M381.67 259.81C391.83 255.02 401.33 250.59 410.14 246.97 418.99 243.5 427.28 241.76 435.1 241.96 443.22 243.29 451.22 246.82 459.29 252.34 468.1 259.02 477.41 267.38 487.34 276.98 498.28 287.25 509.94 298.33 522.07 309.83 534.66 321.53 547 333.41 558.32 345.23 568.53 357.06 576.42 368.78 581.16 380.25 583.29 391.72 581.63 402.96 576.12 413.81 568.46 424.67 558.54 434.58 547.48 443.43 536.77 452.2 526.47 459.81 517.19 466.15 509.78 472.33 503.66 477.21 498.7 480.84 493.98 485.85 486.24 493.49 481.04 498.28 477.25 503.33 472.17 509.53 465.81 517.03 459.25 526.39 451.44 536.74 442.49 547.47 433.45 558.53 423.39 568.45 412.44 576.11 401.49 581.62 390.23 583.3 378.84 581.21 367.46 576.5 355.94 568.63 344.45 558.43 333 547.08 321.63 534.68 310.56 521.99 299.72 509.73 289.38 497.91 279.87 486.79 270.94 476.67 263.16 467.18 256.86 458.21 251.47 449.98 247.77 441.86 245.9 433.63 244.86 425.72 245.45 417.35 247.53 408.41 249.68 399.53 252.68 389.94 256.21 379.63 258.76 369.32 261.19 358.82 263.37 348.35 264.3 337.98 265.19 327.79 266.21 318.08 266.53 308.67 267.5 300 269.3 292.38 271.13 285.31 274.18 279.51 278.45 275.21 283.15 271.5 289.14 269.25 296.23 268.42 303.77 267.73 312.26 267.96 321.43 268.83 330.88 268.85 340.8 268.76 350.95 268.27 361.19 266.12 371.5 263.25 381.67 259.81" stroke-dasharray="2 9" transform="rotate(48.48, 400, 400)" opacity="0.52"></path><path d="M378.47 271.1C387.83 266.6 396.78 262.44 405.29 258.99 413.86 255.58 422.13 253.63 430.18 253.36 438.52 253.97 446.92 256.52 455.51 260.87 464.71 266.23 474.39 273.19 484.56 281.39 495.43 290.27 506.76 300.05 518.23 310.36 529.84 320.96 540.95 331.86 550.87 342.77 559.67 353.78 566.27 364.71 570.03 375.38 571.56 386.08 569.79 396.51 564.69 406.48 557.77 416.44 548.81 425.44 538.72 433.4 528.78 441.31 518.97 448.13 509.82 453.81 502.12 459.45 495.43 464.02 489.7 467.62 483.54 473 473.65 482.87 468.15 489.13 464.42 494.95 459.71 501.75 453.92 509.55 448.06 518.8 441.09 528.7 433.05 538.7 424.95 548.85 415.85 557.85 405.84 564.81 395.83 569.94 385.44 571.74 374.87 570.25 364.34 566.51 353.65 559.92 343.01 551.11 332.47 541.13 322.07 529.95 312.03 518.23 302.29 506.61 293.11 495.11 284.81 484.05 277.08 473.68 270.49 463.81 265.29 454.42 260.9 445.64 258.03 437.08 256.8 428.58 256.22 420.4 257.07 412 259.21 403.3 261.35 394.68 264.24 385.59 267.64 376.08 270.14 366.56 272.58 357.07 274.82 347.78 275.95 338.57 277.04 329.71 278.2 321.43 278.66 313.41 279.61 306.18 281.23 299.98 283.98 291.9 295.03 282.56 303.44 281.18 309.72 280.56 316.92 280.66 324.84 281.2 332.97 280.87 341.66 280.41 350.68 279.59 359.79 277.3 369.1 274.42 378.47 271.1" stroke-dasharray="5 8" transform="rotate(52.52, 400, 400)" opacity="0.85"></path><path d="M377.5 282.4C386.13 278.19 394.57 274.31 402.8 271.06 411.11 267.76 419.33 265.7 427.5 265.05 435.94 265.08 444.56 266.78 453.41 270.06 462.72 274.21 472.43 279.82 482.48 286.63 492.96 294.09 503.65 302.47 514.23 311.46 524.7 320.8 534.49 330.51 543.02 340.35 550.46 350.32 555.88 360.28 558.76 370.04 559.78 379.84 557.96 389.37 553.27 398.46 547.06 407.56 539.01 415.74 529.89 422.97 520.77 430.17 511.54 436.43 502.71 441.73 494.95 447.08 487.91 451.6 481.64 455.4 476.58 459.51 472.01 463.23 467.7 466.79 464.15 471.14 460.41 475.78 456.27 480.94 452.38 487.32 447.77 494.48 442.33 502.36 436.91 511.32 430.55 520.66 423.26 529.89 415.94 539.11 407.71 547.23 398.63 553.51 389.54 558.26 380.09 560.13 370.45 559.16 360.87 556.29 351.17 550.87 341.55 543.41 332.07 534.81 322.78 524.94 313.91 514.35 305.37 503.63 297.43 492.76 290.37 482.09 283.85 471.84 278.41 461.92 274.26 452.41 270.78 443.35 268.65 434.54 267.97 425.93 267.78 417.58 268.82 409.2 270.98 400.75 273.07 392.37 275.83 383.78 279.06 375.01 281.51 366.23 283.93 357.7 286.22 349.53 287.53 341.41 288.8 333.78 290.13 326.81 291.28 317.04 295.71 302.53 299.76 298.17 304.89 295.16 320.14 293.33 329.96 293.43 336.9 292.76 344.45 291.94 352.44 290.83 360.48 288.43 368.88 285.58 377.5 282.4" stroke-dasharray="4 6" transform="rotate(56.56, 400, 400)" opacity="0.31"></path><path d="M378.87 293.7C386.8 289.8 394.76 286.21 402.68 283.19 410.67 280.04 418.74 277.94 426.89 277.03 435.24 276.6 443.84 277.59 452.65 279.96 461.78 283.01 471.2 287.38 480.79 292.87 490.6 298.92 500.41 305.9 509.89 313.53 519.12 321.5 527.56 329.93 534.74 338.57 540.9 347.36 545.24 356.23 547.37 364.98 547.95 373.77 546.12 382.37 541.84 390.61 536.31 398.85 529.16 406.3 520.98 412.94 512.71 419.59 504.17 425.46 495.79 430.59 488.18 435.81 481.03 440.44 474.45 444.59 468.84 449.07 463.64 453.37 458.73 457.63 454.51 462.62 450.24 467.91 445.76 473.65 441.59 480.36 436.92 487.65 431.66 495.41 426.47 503.94 420.55 512.62 413.88 521.02 407.19 529.32 399.74 536.58 391.56 542.22 383.37 546.58 374.88 548.48 366.26 547.94 357.7 545.84 349.08 541.49 340.59 535.3 332.25 528.06 324.17 519.54 316.55 510.19 309.23 500.56 302.55 490.58 296.72 480.6 291.36 470.8 286.99 461.17 283.79 451.84 281.12 442.82 279.65 434.03 279.41 425.49 279.52 417.15 280.69 408.91 282.81 400.76 284.83 392.68 287.44 384.59 290.49 376.53 292.85 368.47 295.24 360.81 297.56 353.66 299.02 346.54 300.47 339.99 301.97 334.14 305.57 320.03 315.59 308.03 321.52 306.94 325.84 306.14 330.96 305.71 336.78 305.49 342.69 304.49 349.23 303.35 356.3 301.98 363.39 299.52 370.94 296.72 378.87 293.7" stroke-dasharray="7 1" transform="rotate(60.599999999999994, 400, 400)" opacity="0.37"></path><path d="M382.44 304.99C389.71 301.41 397.15 298.13 404.69 295.35 412.28 292.41 420.06 290.35 427.98 289.27 436.04 288.51 444.35 288.94 452.82 290.54 461.48 292.65 470.31 295.92 479.17 300.21 488.07 304.96 496.8 310.58 505.08 316.88 513.02 323.48 520.12 330.58 526.01 337.98 531 345.53 534.38 353.24 535.86 360.94 536.09 368.68 534.28 376.33 530.41 383.74 525.53 391.15 519.23 397.94 511.98 404.11 504.58 410.3 496.8 415.91 489 420.98 481.72 426.18 474.69 430.98 468.04 435.49 462.12 440.34 456.52 445.12 451.19 449.96 446.44 455.4 441.72 461.12 436.92 467.18 432.44 473.98 427.65 481.17 422.46 488.63 417.38 496.59 411.77 504.53 405.61 512.09 399.45 519.48 392.69 525.92 385.36 530.92 378.03 534.89 370.51 536.77 362.93 536.6 355.41 535.15 347.91 531.78 340.6 526.76 333.44 520.81 326.58 513.63 320.21 505.6 314.11 497.18 308.63 488.29 303.96 479.23 299.66 470.19 296.27 461.16 293.9 452.32 291.94 443.64 290.99 435.14 291.1 426.9 291.44 418.79 292.67 410.85 294.72 403.11 296.63 395.42 299.06 387.86 301.91 380.48 304.17 373.11 306.51 366.26 308.82 359.99 311.21 350.93 315.41 336.25 317.69 330.86 323.4 323.65 337.88 318.31 345.09 317.34 350.16 316.03 355.85 314.62 362.1 313.04 368.37 310.56 375.16 307.84 382.44 304.99" stroke-dasharray="3 8" transform="rotate(64.64, 400, 400)" opacity="0.86"></path><path d="M387.82 316.29C394.45 313.03 401.33 310.07 408.38 307.56 415.47 304.87 422.79 302.9 430.26 301.75 437.83 300.78 445.59 300.79 453.45 301.78 461.39 303.13 469.39 305.47 477.28 308.71 485.11 312.3 492.65 316.69 499.67 321.74 506.3 327.03 512.12 332.85 516.82 339.03 520.76 345.34 523.31 351.89 524.24 358.53 524.19 365.22 522.45 371.93 518.98 378.54 514.72 385.16 509.24 391.35 502.89 397.11 496.37 402.89 489.4 408.29 482.29 413.35 475.5 418.53 468.78 423.49 462.29 428.29 456.32 433.39 450.56 438.51 445.01 443.72 439.92 449.39 434.9 455.3 429.89 461.44 425.16 468.1 420.25 474.98 415.13 481.96 410.12 489.25 404.76 496.39 399.04 503.09 393.33 509.59 387.21 515.22 380.69 519.63 374.17 523.2 367.58 525.03 361.04 525.15 354.54 524.25 348.15 521.72 342.01 517.77 335.99 513.03 330.31 507.15 325.13 500.43 320.17 493.3 315.8 485.62 312.17 477.66 308.82 469.6 306.27 461.43 304.6 453.33 303.21 445.29 302.69 437.35 303.04 429.63 303.53 421.99 304.76 414.53 306.69 407.32 308.46 400.14 310.7 393.16 313.34 386.47 315.48 379.77 317.73 373.65 320.01 368.15 322.55 360.2 327.24 347.56 329.72 342.93 335.32 336.35 348.28 330.42 354.59 328.94 358.98 327.37 363.98 325.74 369.53 324.02 375.08 321.54 381.18 318.94 387.82 316.29" stroke-dasharray="9 0" transform="rotate(68.68, 400, 400)" opacity="0.49"></path><path d="M394.47 327.59C406.45 321.32 419.56 316.72 433.15 314.42 446.92 312.46 461.17 313.85 474.83 318.35 487.97 323.84 499.35 332.05 507.18 342.02 512.56 352.4 512.95 363.87 507.56 375.57 499.7 387.28 488.34 398.1 475.59 407.97 463.51 418.28 451.44 428.5 440.08 438.81 430.04 450.47 420.04 462.89 409.91 475.35 400.19 488.46 389.53 500.16 378.02 508.33 366.5 513.93 355.26 513.67 345.08 508.33 335.26 500.42 327.07 488.89 321.36 475.56 316.44 461.61 314.3 447.07 315.2 433.07 316.31 419.19 319.63 405.89 324.76 393.85 328.28 381.81 332.31 372.05 336.54 364.67 339.05 357.21 342.48 351.98 347.11 348.82 351.06 344.95 356.93 342.25 364.81 340.25 372.55 336.19 382.47 331.88 394.47 327.59" stroke-dasharray="3 4" transform="rotate(72.72, 400, 400)" opacity="0.29"></path><path d="M401.69 338.88C412.36 333.38 424.01 329.37 436 327.26 448.02 325.22 460.21 325.86 471.56 329.08 482.29 332.92 491.26 339.14 497.09 347.11 501.03 355.37 500.91 364.9 496.14 375.14 489.51 385.37 479.88 395.35 468.85 404.9 458.08 414.8 446.95 424.87 436.21 435.05 426.33 446.11 416.52 457.59 406.83 468.74 397.48 480.12 387.69 490.1 377.63 497.03 367.56 502.03 358.16 502.3 349.98 498.43 342.03 492.56 335.68 483.51 331.51 472.64 327.82 461.09 326.45 448.69 327.56 436.51 328.66 424.31 331.62 412.53 336.19 401.87 339.48 391.21 343.39 382.58 347.61 376 350.47 369.27 354.12 364.32 358.72 361 362.66 356.95 368.14 353.79 375.25 351.24 382.19 347.06 391.01 342.84 401.69 338.88" stroke-dasharray="7 5" transform="rotate(76.76, 400, 400)" opacity="0.87"></path><path d="M408.73 350.18C418.03 345.45 428.06 342.05 438.19 340.23 448.28 338.29 458.26 338.48 467.25 340.76 475.68 343.35 482.45 347.98 486.57 354.25 489.32 360.68 488.84 368.48 484.71 377.28 479.24 386.09 471.28 395.09 462 404.02 452.73 413.2 442.88 422.68 433.15 432.21 423.93 442.25 414.71 452.44 405.76 462.06 397.04 471.68 388.22 479.97 379.56 485.74 370.89 490.09 363.14 490.73 356.68 488.09 350.34 483.98 345.5 477.18 342.52 468.69 339.78 459.56 338.93 449.46 340.07 439.28 341.08 429.02 343.64 418.95 347.61 409.7 350.62 400.45 354.32 392.85 358.41 386.89 361.47 380.76 365.25 375.99 369.78 372.46 373.75 368.3 378.92 364.82 385.36 361.9 391.63 357.76 399.43 353.75 408.73 350.18" stroke-dasharray="8 10" transform="rotate(80.80000000000001, 400, 400)" opacity="0.54"></path><path d="M414.87 361.48C422.73 357.53 431 354.75 439.16 353.27 447.24 351.6 455 351.58 461.77 353.2 470.5 356.64 477.09 371.27 473.29 381.79 468.91 389.17 462.53 397.02 454.99 405 447.35 413.12 439.03 421.58 430.63 430.01 422.49 438.68 414.29 447.31 406.37 455.28 398.59 463.11 390.9 469.79 383.61 474.44 373.18 478.55 358.2 472.23 354.26 463.51 352.21 456.69 351.67 448.88 352.7 440.78 353.55 432.57 355.68 424.3 359.04 416.52 361.7 408.74 365.08 402.14 368.9 396.75 372 391.22 375.75 386.66 380.1 383.01 384.01 378.87 388.85 375.27 394.62 372.19 400.23 368.27 407 364.6 414.87 361.48" stroke-dasharray="10 0" transform="rotate(84.84, 400, 400)" opacity="0.56"></path><path d="M419.46 372.77C432.18 366.03 445.19 363.75 455.02 366.18 463.57 368.62 466.78 376.24 461.86 388.18 454.68 400.11 442.03 414.33 428.37 428.15 415.06 442.26 401.2 455.45 389.36 463.14 377.51 468.42 369.6 465.43 366.52 457 363.38 447.17 364.65 434.17 370.46 421.63 374.45 409.08 381.24 399.25 389.48 392.46 396.58 384.36 406.74 377.39 419.46 372.77" stroke-dasharray="4 0" transform="rotate(88.88, 400, 400)" opacity="0.11"></path><path d="M422.04 384.07C436.16 378.32 453.43 383.95 450.44 395.79 445.34 404.84 436.21 415.81 426.06 426.31 415.94 436.79 405.24 446.34 396.21 451.85 384.26 455.27 377.12 438.41 381.89 424.49 385.17 415.04 390.92 406.87 397.83 400.7 404.1 393.79 412.44 387.84 422.04 384.07" stroke-dasharray="8 4" transform="rotate(92.92, 400, 400)" opacity="0.84"></path><path d="M422.33 395.37C435.13 388.39 443.7 391.61 439.01 403.84 432.17 416.06 415.71 433.1 403.46 440.55 391.2 445.66 387.16 437.41 393.31 424.81 397.53 412.2 409.52 400.15 422.33 395.37" stroke-dasharray="11 10" transform="rotate(96.96, 400, 400)" opacity="0.53"></path></g></svg>