<svg xmlns="http://www.w3.org/2000/svg" version="1.1" xmlns:xlink="http://www.w3.org/1999/xlink" xmlns:svgjs="http://svgjs.dev/svgjs" viewBox="0 0 800 800" opacity="0.89"><defs><linearGradient x1="50%" y1="0%" x2="50%" y2="100%" id="hhhorizon-grad"><stop stop-color="#191919" stop-opacity="1" offset="25%"></stop><stop stop-color="#c94079" stop-opacity="1" offset="100%"></stop></linearGradient><linearGradient x1="50%" y1="0%" x2="50%" y2="100%" id="hhhorizon-grad2"><stop stop-color="#c94079" stop-opacity="1" offset="0%"></stop><stop stop-color="#191919" stop-opacity="1" offset="75%"></stop></linearGradient><clipPath id="SvgjsClipPath1042"><rect width="800" height="45" x="0" y="0"></rect><rect width="800" height="44" x="0" y="18"></rect><rect width="800" height="43" x="0" y="36"></rect><rect width="800" height="42" x="0" y="55"></rect><rect width="800" height="41" x="0" y="73"></rect><rect width="800" height="40" x="0" y="91"></rect><rect width="800" height="39" x="0" y="109"></rect><rect width="800" height="38" x="0" y="127"></rect><rect width="800" height="37" x="0" y="145"></rect><rect width="800" height="36" x="0" y="164"></rect><rect width="800" height="35" x="0" y="182"></rect><rect width="800" height="34" x="0" y="200"></rect><rect width="800" height="33" x="0" y="218"></rect><rect width="800" height="32" x="0" y="236"></rect><rect width="800" height="31" x="0" y="255"></rect><rect width="800" height="30" x="0" y="273"></rect><rect width="800" height="29" x="0" y="291"></rect><rect width="800" height="28" x="0" y="309"></rect><rect width="800" height="27" x="0" y="327"></rect><rect width="800" height="26" x="0" y="345"></rect><rect width="800" height="25" x="0" y="364"></rect><rect width="800" height="24" x="0" y="382"></rect><rect width="800" height="23" x="0" y="400"></rect><rect width="800" height="22" x="0" y="418"></rect><rect width="800" height="21" x="0" y="436"></rect><rect width="800" height="20" x="0" y="455"></rect><rect width="800" height="19" x="0" y="473"></rect><rect width="800" height="18" x="0" y="491"></rect><rect width="800" height="17" x="0" y="509"></rect><rect width="800" height="16" x="0" y="527"></rect><rect width="800" height="15" x="0" y="545"></rect><rect width="800" height="14" x="0" y="564"></rect><rect width="800" height="13" x="0" y="582"></rect><rect width="800" height="12" x="0" y="600"></rect><rect width="800" height="11" x="0" y="618"></rect><rect width="800" height="10" x="0" y="636"></rect><rect width="800" height="9" x="0" y="655"></rect><rect width="800" height="8" x="0" y="673"></rect><rect width="800" height="7" x="0" y="691"></rect><rect width="800" height="6" x="0" y="709"></rect><rect width="800" height="5" x="0" y="727"></rect><rect width="800" height="4" x="0" y="745"></rect><rect width="800" height="3" x="0" y="764"></rect><rect width="800" height="2" x="0" y="782"></rect><rect width="800" height="1" x="0" y="800"></rect></clipPath><clipPath><rect width="800" height="1" x="0" y="45"></rect><rect width="800" height="2" x="0" y="90"></rect><rect width="800" height="3" x="0" y="135"></rect><rect width="800" height="4" x="0" y="180"></rect><rect width="800" height="5" x="0" y="225"></rect><rect width="800" height="6" x="0" y="270"></rect><rect width="800" height="7" x="0" y="315"></rect><rect width="800" height="8" x="0" y="360"></rect><rect width="800" height="9" x="0" y="405"></rect><rect width="800" height="10" x="0" y="450"></rect><rect width="800" height="11" x="0" y="495"></rect><rect width="800" height="12" x="0" y="540"></rect><rect width="800" height="13" x="0" y="585"></rect><rect width="800" height="14" x="0" y="630"></rect><rect width="800" height="15" x="0" y="675"></rect><rect width="800" height="16" x="0" y="720"></rect><rect width="800" height="17" x="0" y="765"></rect><rect width="800" height="18" x="0" y="810"></rect></clipPath></defs><rect width="800" height="800" fill="url(#hhhorizon-grad)" clip-path="url(&quot;#SvgjsClipPath1042&quot;)"></rect></svg>